<svg xmlns="http://www.w3.org/2000/svg" xmlns:xlink="http://www.w3.org/1999/xlink" width="160" zoomAndPan="magnify" viewBox="0 0 120 48.75" height="65" preserveAspectRatio="xMidYMid meet" version="1.0"><defs><g/><clipPath id="01806cc406"><path d="M 0.304688 14 L 11 14 L 11 31 L 0.304688 31 Z M 0.304688 14 " clip-rule="nonzero"/></clipPath><clipPath id="24fd7edd84"><path d="M 113 19 L 119.691406 19 L 119.691406 29 L 113 29 Z M 113 19 " clip-rule="nonzero"/></clipPath></defs><g clip-path="url(#01806cc406)"><g fill="#000000" fill-opacity="1"><g transform="translate(0.564947, 30.220026)"><g><path d="M 8.738281 -10.707031 C 8.601562 -10.546875 8.488281 -10.339844 8.234375 -10.296875 C 8.234375 -10.386719 8.234375 -10.457031 8.234375 -10.5 C 8.375 -11.875 8.535156 -13.246094 8.648438 -14.617188 C 8.671875 -14.894531 8.625 -15.167969 8.535156 -15.417969 C 8.417969 -15.808594 8.304688 -15.96875 8.074219 -15.96875 C 7.960938 -15.96875 7.847656 -15.921875 7.6875 -15.878906 C 7.574219 -15.855469 7.433594 -15.738281 7.367188 -15.648438 C 7.113281 -15.328125 6.910156 -15.007812 6.703125 -14.6875 C 6.152344 -13.863281 5.421875 -13.269531 4.574219 -12.789062 C 4.460938 -12.742188 4.371094 -12.675781 4.277344 -12.605469 C 4.4375 -12.515625 4.550781 -12.445312 4.734375 -12.445312 C 5.558594 -12.492188 6.109375 -13.039062 6.792969 -13.542969 C 6.496094 -11.804688 6.132812 -10.089844 5.742188 -8.375 C 5.671875 -8.03125 5.492188 -7.777344 5.191406 -7.527344 C 4.210938 -6.726562 3.273438 -5.878906 2.332031 -5.011719 C 1.714844 -4.484375 0.34375 -2.402344 0.0898438 -1.511719 C -0.207031 -0.550781 0.296875 0.136719 1.304688 0.160156 C 1.464844 0.183594 1.625 0.183594 1.785156 0.183594 C 1.898438 0.183594 2.011719 0.183594 2.128906 0.160156 C 4.210938 -0.0898438 5.214844 -1.511719 5.925781 -3.339844 C 6.382812 -4.53125 6.816406 -5.742188 7.253906 -6.953125 C 7.480469 -7.59375 7.664062 -8.214844 7.824219 -8.855469 C 7.914062 -9.152344 8.03125 -9.402344 8.257812 -9.609375 C 8.921875 -10.179688 9.402344 -10.867188 9.792969 -11.667969 C 9.65625 -11.621094 9.515625 -11.574219 9.449219 -11.484375 C 9.195312 -11.234375 8.992188 -10.957031 8.738281 -10.707031 Z M 1.601562 -0.367188 C 1.53125 -0.34375 1.441406 -0.34375 1.371094 -0.34375 C 1.050781 -0.34375 0.871094 -0.550781 0.800781 -0.960938 C 0.730469 -1.394531 0.847656 -1.808594 1.050781 -2.171875 C 1.441406 -2.8125 1.808594 -3.453125 2.21875 -4.050781 C 2.972656 -5.171875 4.09375 -6.085938 5.148438 -6.933594 C 5.171875 -6.910156 5.214844 -6.886719 5.238281 -6.839844 C 4.828125 -5.765625 4.414062 -4.710938 4.027344 -3.613281 C 3.683594 -2.722656 3.179688 -1.898438 2.652344 -1.097656 C 2.402344 -0.730469 2.058594 -0.457031 1.601562 -0.367188 Z M 1.601562 -0.367188 "/></g></g></g></g><g fill="#000000" fill-opacity="1"><g transform="translate(9.14305, 30.220026)"><g><path d="M 5.582031 -6.816406 C 5.398438 -6.519531 5.214844 -6.222656 4.964844 -5.972656 C 4.4375 -5.421875 3.867188 -4.871094 3.292969 -4.347656 C 2.972656 -4.050781 2.5625 -3.933594 2.128906 -3.890625 C 1.761719 -3.890625 1.625 -3.957031 1.601562 -4.347656 C 1.53125 -5.078125 1.464844 -5.832031 2.242188 -6.292969 C 2.378906 -6.382812 2.492188 -6.519531 2.609375 -6.632812 C 3.316406 -7.113281 3.636719 -7.824219 3.820312 -8.601562 C 3.933594 -9.128906 3.796875 -9.355469 3.25 -9.425781 C 3.113281 -9.449219 2.972656 -9.449219 2.859375 -9.449219 C 0.890625 -9.449219 0.0703125 -7.503906 -0.296875 -5.878906 C -0.367188 -5.605469 -0.390625 -5.308594 -0.367188 -5.011719 C -0.25 -3.730469 0.640625 -3.226562 1.808594 -3.226562 C 2.722656 -3.226562 3.523438 -3.546875 4.164062 -4.300781 C 4.484375 -4.691406 4.871094 -5.054688 5.214844 -5.445312 C 5.558594 -5.8125 5.878906 -6.222656 6.199219 -6.632812 C 6.292969 -6.773438 6.335938 -6.953125 6.429688 -7.207031 C 6.039062 -7.207031 5.789062 -7.160156 5.582031 -6.816406 Z M 3.363281 -8.898438 C 3.292969 -7.960938 2.859375 -7.230469 1.992188 -6.726562 C 2.011719 -6.816406 1.992188 -6.910156 2.035156 -6.976562 C 2.265625 -7.550781 2.492188 -8.121094 2.746094 -8.695312 C 2.835938 -8.898438 2.882812 -8.96875 3.019531 -8.96875 C 3.113281 -8.96875 3.203125 -8.945312 3.363281 -8.898438 Z M 3.363281 -8.898438 "/></g></g></g><g fill="#000000" fill-opacity="1"><g transform="translate(14.770286, 30.220026)"><g><path d="M 5.511719 -7.230469 C 5.445312 -7.320312 5.285156 -7.433594 5.171875 -7.414062 C 4.917969 -7.390625 4.644531 -7.34375 4.460938 -7.207031 C 4.003906 -6.863281 3.570312 -6.472656 3.132812 -6.109375 C 2.929688 -5.925781 2.722656 -5.765625 2.492188 -5.582031 C 2.128906 -6.132812 1.785156 -6.613281 1.464844 -7.113281 C 1.28125 -7.367188 1.234375 -7.617188 1.464844 -7.914062 C 1.945312 -8.511719 2.402344 -9.515625 2.425781 -10.273438 C 2.425781 -10.914062 1.898438 -11.074219 1.351562 -11.074219 C 1.050781 -11.074219 0.753906 -10.980469 0.503906 -10.773438 C -0.34375 -10.113281 -0.527344 -9.152344 -0.410156 -8.191406 C -0.320312 -7.230469 0.570312 -5.445312 1.03125 -4.53125 C 0.617188 -4.210938 0.230469 -3.910156 -0.136719 -3.570312 C -0.800781 -2.90625 -1.234375 -2.128906 -1.167969 -1.167969 C -1.097656 -0.367188 -0.367188 0.390625 0.433594 0.410156 C 1.554688 0.410156 2.996094 0.273438 3.476562 -0.914062 C 3.707031 -1.417969 3.636719 -1.945312 3.589844 -2.449219 C 3.5 -3.273438 3.273438 -4.070312 2.90625 -4.828125 C 3.636719 -5.46875 4.347656 -6.085938 5.054688 -6.679688 C 5.171875 -6.773438 5.285156 -6.816406 5.375 -6.910156 C 5.445312 -7 5.558594 -7.183594 5.511719 -7.230469 Z M 1.417969 -10.617188 C 1.464844 -10.617188 1.511719 -10.617188 1.554688 -10.59375 C 1.648438 -10.570312 1.714844 -10.339844 1.738281 -10.179688 C 1.738281 -9.65625 1.417969 -8.945312 0.847656 -8.375 C 0.800781 -8.96875 0.730469 -9.425781 0.753906 -9.90625 C 0.753906 -10.226562 1.074219 -10.617188 1.417969 -10.617188 Z M 0.824219 -0.136719 C 0.273438 -0.113281 -0.207031 -0.59375 -0.296875 -1.210938 C -0.390625 -1.945312 -0.0703125 -2.515625 0.390625 -3.019531 C 0.664062 -3.316406 1.007812 -3.570312 1.394531 -3.890625 C 1.851562 -3.042969 2.082031 -2.21875 2.082031 -1.328125 C 2.082031 -0.6875 1.511719 -0.160156 0.824219 -0.136719 Z M 0.824219 -0.136719 "/></g></g></g><g fill="#000000" fill-opacity="1"><g transform="translate(19.436773, 30.220026)"><g><path d="M 5.511719 -7.230469 C 5.445312 -7.320312 5.285156 -7.433594 5.171875 -7.414062 C 4.917969 -7.390625 4.644531 -7.34375 4.460938 -7.207031 C 4.003906 -6.863281 3.570312 -6.472656 3.132812 -6.109375 C 2.929688 -5.925781 2.722656 -5.765625 2.492188 -5.582031 C 2.128906 -6.132812 1.785156 -6.613281 1.464844 -7.113281 C 1.28125 -7.367188 1.234375 -7.617188 1.464844 -7.914062 C 1.945312 -8.511719 2.402344 -9.515625 2.425781 -10.273438 C 2.425781 -10.914062 1.898438 -11.074219 1.351562 -11.074219 C 1.050781 -11.074219 0.753906 -10.980469 0.503906 -10.773438 C -0.34375 -10.113281 -0.527344 -9.152344 -0.410156 -8.191406 C -0.320312 -7.230469 0.570312 -5.445312 1.03125 -4.53125 C 0.617188 -4.210938 0.230469 -3.910156 -0.136719 -3.570312 C -0.800781 -2.90625 -1.234375 -2.128906 -1.167969 -1.167969 C -1.097656 -0.367188 -0.367188 0.390625 0.433594 0.410156 C 1.554688 0.410156 2.996094 0.273438 3.476562 -0.914062 C 3.707031 -1.417969 3.636719 -1.945312 3.589844 -2.449219 C 3.5 -3.273438 3.273438 -4.070312 2.90625 -4.828125 C 3.636719 -5.46875 4.347656 -6.085938 5.054688 -6.679688 C 5.171875 -6.773438 5.285156 -6.816406 5.375 -6.910156 C 5.445312 -7 5.558594 -7.183594 5.511719 -7.230469 Z M 1.417969 -10.617188 C 1.464844 -10.617188 1.511719 -10.617188 1.554688 -10.59375 C 1.648438 -10.570312 1.714844 -10.339844 1.738281 -10.179688 C 1.738281 -9.65625 1.417969 -8.945312 0.847656 -8.375 C 0.800781 -8.96875 0.730469 -9.425781 0.753906 -9.90625 C 0.753906 -10.226562 1.074219 -10.617188 1.417969 -10.617188 Z M 0.824219 -0.136719 C 0.273438 -0.113281 -0.207031 -0.59375 -0.296875 -1.210938 C -0.390625 -1.945312 -0.0703125 -2.515625 0.390625 -3.019531 C 0.664062 -3.316406 1.007812 -3.570312 1.394531 -3.890625 C 1.851562 -3.042969 2.082031 -2.21875 2.082031 -1.328125 C 2.082031 -0.6875 1.511719 -0.160156 0.824219 -0.136719 Z M 0.824219 -0.136719 "/></g></g></g><g fill="#000000" fill-opacity="1"><g transform="translate(24.103261, 30.220026)"><g><path d="M 4.964844 -7.09375 C 4.917969 -7.113281 4.871094 -7.136719 4.828125 -7.136719 C 4.734375 -7.136719 4.644531 -7.09375 4.550781 -7.070312 C 4.484375 -7.046875 4.414062 -6.953125 4.371094 -6.886719 C 4.140625 -6.542969 3.957031 -6.199219 3.730469 -5.855469 C 3.339844 -5.285156 2.929688 -4.710938 2.515625 -4.140625 C 2.402344 -3.980469 2.195312 -3.84375 2.011719 -3.730469 C 1.921875 -3.683594 1.832031 -3.660156 1.714844 -3.660156 C 1.578125 -3.660156 1.441406 -3.707031 1.351562 -3.820312 C 1.234375 -3.933594 1.210938 -4.1875 1.234375 -4.371094 C 1.328125 -4.871094 1.464844 -5.375 1.554688 -5.878906 C 1.714844 -6.566406 1.875 -7.253906 1.992188 -7.9375 C 2.082031 -8.417969 1.875 -8.671875 1.417969 -8.761719 C 1.28125 -8.785156 1.167969 -8.808594 1.050781 -8.808594 C 0.710938 -8.808594 0.480469 -8.625 0.367188 -8.28125 C 0.25 -7.847656 0.136719 -7.414062 0 -7 C -0.230469 -6.359375 -0.367188 -5.71875 -0.410156 -5.054688 C -0.433594 -4.550781 -0.320312 -4.140625 0.0703125 -3.773438 C 0.457031 -3.386719 0.824219 -3.316406 1.351562 -3.316406 C 2.21875 -3.316406 2.632812 -3.433594 3.019531 -3.910156 C 3.730469 -4.804688 4.414062 -5.71875 4.988281 -6.726562 C 5.054688 -6.839844 5.148438 -7.023438 4.964844 -7.09375 Z M 1.234375 -10.089844 C 1.578125 -10.089844 1.898438 -10.113281 2.21875 -10.203125 C 2.449219 -10.273438 2.515625 -10.476562 2.515625 -10.730469 C 2.492188 -10.980469 2.355469 -11.074219 2.105469 -11.09375 C 2.011719 -11.09375 1.921875 -11.09375 1.898438 -11.09375 C 1.394531 -11.09375 1.074219 -10.980469 0.9375 -10.707031 C 0.730469 -10.386719 0.871094 -10.089844 1.234375 -10.089844 Z M 1.234375 -10.089844 "/></g></g></g><g fill="#000000" fill-opacity="1"><g transform="translate(28.449502, 30.220026)"><g><path d="M 5.03125 -6.792969 C 4.347656 -5.832031 3.570312 -4.988281 2.515625 -4.414062 C 2.3125 -4.300781 2.058594 -4.164062 1.832031 -4.164062 C 1.738281 -4.164062 1.648438 -4.1875 1.554688 -4.253906 C 1.257812 -4.4375 1.234375 -4.851562 1.28125 -5.214844 C 1.394531 -6.152344 1.578125 -7.113281 2.105469 -7.9375 C 2.21875 -8.144531 2.332031 -8.328125 2.472656 -8.511719 C 2.492188 -8.511719 2.539062 -8.488281 2.5625 -8.464844 C 2.539062 -8.167969 2.492188 -7.894531 2.472656 -7.527344 C 2.972656 -7.664062 3.226562 -7.960938 3.273438 -8.464844 C 3.316406 -8.808594 3.179688 -9.035156 2.835938 -9.105469 C 2.699219 -9.128906 2.5625 -9.152344 2.449219 -9.152344 C 2.082031 -9.152344 1.761719 -9.035156 1.464844 -8.832031 C 0.0703125 -7.871094 -0.273438 -6.429688 -0.34375 -4.871094 C -0.390625 -4.277344 0.160156 -3.707031 0.730469 -3.570312 C 0.960938 -3.523438 1.191406 -3.476562 1.441406 -3.476562 C 2.722656 -3.476562 3.660156 -4.300781 4.53125 -5.148438 C 5.011719 -5.628906 5.492188 -6.152344 5.949219 -6.679688 C 6.039062 -6.75 6.109375 -6.863281 6.175781 -6.953125 C 5.949219 -7.113281 5.765625 -7.183594 5.605469 -7.183594 C 5.398438 -7.183594 5.214844 -7.046875 5.03125 -6.792969 Z M 5.03125 -6.792969 "/></g></g></g><g fill="#000000" fill-opacity="1"><g transform="translate(33.504868, 30.220026)"><g><path d="M 6.40625 -6.839844 C 5.949219 -6.269531 5.46875 -5.671875 4.988281 -5.101562 C 4.691406 -4.734375 4.09375 -4.371094 3.730469 -4.277344 C 3.660156 -4.621094 3.820312 -4.894531 3.933594 -5.171875 C 4.09375 -5.558594 4.253906 -5.925781 4.414062 -6.292969 C 4.507812 -6.519531 4.4375 -6.703125 4.230469 -6.886719 C 4.003906 -7.070312 3.867188 -7.160156 3.707031 -7.160156 C 3.546875 -7.160156 3.386719 -7.070312 3.132812 -6.863281 C 2.632812 -6.472656 2.105469 -6.132812 1.578125 -5.765625 C 1.53125 -5.789062 1.488281 -5.832031 1.441406 -5.878906 C 1.714844 -7.296875 2.289062 -8.554688 3.339844 -9.585938 C 3.75 -9.425781 3.957031 -9.175781 4.050781 -8.808594 C 4.09375 -8.554688 4.09375 -8.234375 4.390625 -8.121094 C 5.011719 -8.601562 5.011719 -9.402344 4.390625 -9.835938 C 3.933594 -10.15625 3.476562 -10.25 2.929688 -10.25 C 2.472656 -10.25 2.105469 -10.136719 1.785156 -9.792969 C 1.234375 -9.242188 0.730469 -8.625 0.34375 -7.9375 C -0.046875 -7.230469 -0.207031 -6.496094 -0.113281 -5.695312 C -0.0898438 -5.351562 0.0703125 -5.148438 0.367188 -5.03125 C 0.664062 -4.941406 0.9375 -4.871094 1.210938 -4.871094 C 1.578125 -4.871094 1.898438 -4.988281 2.21875 -5.285156 C 2.332031 -5.398438 2.492188 -5.46875 2.699219 -5.628906 C 2.539062 -5.03125 2.492188 -4.550781 2.675781 -4.070312 C 2.769531 -3.773438 2.972656 -3.613281 3.273438 -3.589844 C 3.707031 -3.589844 4.050781 -3.613281 4.4375 -3.867188 C 5.652344 -4.621094 6.65625 -5.832031 7.480469 -7 C 7.230469 -7.113281 7.070312 -7.183594 6.910156 -7.183594 C 6.726562 -7.183594 6.589844 -7.070312 6.40625 -6.839844 Z M 6.40625 -6.839844 "/></g></g></g><g fill="#000000" fill-opacity="1"><g transform="translate(39.932724, 30.220026)"><g/></g></g><g fill="#000000" fill-opacity="1"><g transform="translate(43.203837, 30.220026)"><g><path d="M 5.972656 -7.273438 C 5.8125 -7.183594 5.628906 -7.070312 5.511719 -6.910156 C 5.332031 -6.65625 5.171875 -6.359375 4.988281 -6.085938 C 4.277344 -4.964844 3.660156 -3.773438 2.699219 -2.835938 C 2.355469 -2.515625 2.058594 -2.171875 1.511719 -1.921875 C 1.441406 -2.609375 1.351562 -3.15625 1.371094 -3.730469 C 1.417969 -5.101562 1.851562 -7.296875 2.699219 -8.441406 C 2.972656 -8.785156 3.25 -9.128906 3.570312 -9.449219 C 4.371094 -10.25 4.964844 -11.1875 5.46875 -12.195312 C 5.949219 -13.109375 6.085938 -14.046875 5.992188 -15.03125 C 5.949219 -15.511719 5.8125 -15.695312 5.332031 -15.761719 C 5.148438 -15.785156 4.988281 -15.785156 4.828125 -15.785156 C 3.980469 -15.785156 3.410156 -15.464844 2.972656 -14.574219 C 2.515625 -13.636719 2.035156 -12.695312 1.601562 -11.757812 C 0.753906 -9.882812 -0.59375 -5.652344 -0.640625 -3.523438 C -0.640625 -2.355469 0.113281 -1.28125 1.371094 -1.28125 C 1.832031 -1.28125 2.265625 -1.441406 2.652344 -1.808594 C 3.433594 -2.539062 4.140625 -3.316406 4.691406 -4.210938 C 5.214844 -5.078125 5.8125 -5.949219 6.359375 -6.816406 C 6.429688 -6.910156 6.453125 -7.09375 6.40625 -7.207031 C 6.359375 -7.296875 6.292969 -7.34375 6.199219 -7.34375 C 6.109375 -7.34375 6.039062 -7.320312 5.972656 -7.273438 Z M 4.964844 -13.292969 C 4.460938 -12.054688 3.933594 -10.890625 2.972656 -9.929688 C 3.386719 -11.507812 4.277344 -12.878906 4.964844 -14.34375 C 5.078125 -13.976562 5.078125 -13.636719 4.964844 -13.292969 Z M 4.964844 -13.292969 "/></g></g></g><g fill="#000000" fill-opacity="1"><g transform="translate(48.716703, 30.220026)"><g><path d="M 6.40625 -6.839844 C 5.949219 -6.269531 5.46875 -5.671875 4.988281 -5.101562 C 4.691406 -4.734375 4.09375 -4.371094 3.730469 -4.277344 C 3.660156 -4.621094 3.820312 -4.894531 3.933594 -5.171875 C 4.09375 -5.558594 4.253906 -5.925781 4.414062 -6.292969 C 4.507812 -6.519531 4.4375 -6.703125 4.230469 -6.886719 C 4.003906 -7.070312 3.867188 -7.160156 3.707031 -7.160156 C 3.546875 -7.160156 3.386719 -7.070312 3.132812 -6.863281 C 2.632812 -6.472656 2.105469 -6.132812 1.578125 -5.765625 C 1.53125 -5.789062 1.488281 -5.832031 1.441406 -5.878906 C 1.714844 -7.296875 2.289062 -8.554688 3.339844 -9.585938 C 3.75 -9.425781 3.957031 -9.175781 4.050781 -8.808594 C 4.09375 -8.554688 4.09375 -8.234375 4.390625 -8.121094 C 5.011719 -8.601562 5.011719 -9.402344 4.390625 -9.835938 C 3.933594 -10.15625 3.476562 -10.25 2.929688 -10.25 C 2.472656 -10.25 2.105469 -10.136719 1.785156 -9.792969 C 1.234375 -9.242188 0.730469 -8.625 0.34375 -7.9375 C -0.046875 -7.230469 -0.207031 -6.496094 -0.113281 -5.695312 C -0.0898438 -5.351562 0.0703125 -5.148438 0.367188 -5.03125 C 0.664062 -4.941406 0.9375 -4.871094 1.210938 -4.871094 C 1.578125 -4.871094 1.898438 -4.988281 2.21875 -5.285156 C 2.332031 -5.398438 2.492188 -5.46875 2.699219 -5.628906 C 2.539062 -5.03125 2.492188 -4.550781 2.675781 -4.070312 C 2.769531 -3.773438 2.972656 -3.613281 3.273438 -3.589844 C 3.707031 -3.589844 4.050781 -3.613281 4.4375 -3.867188 C 5.652344 -4.621094 6.65625 -5.832031 7.480469 -7 C 7.230469 -7.113281 7.070312 -7.183594 6.910156 -7.183594 C 6.726562 -7.183594 6.589844 -7.070312 6.40625 -6.839844 Z M 6.40625 -6.839844 "/></g></g></g><g fill="#000000" fill-opacity="1"><g transform="translate(55.144559, 30.220026)"><g><path d="M 5.511719 -7.230469 C 5.445312 -7.320312 5.285156 -7.433594 5.171875 -7.414062 C 4.917969 -7.390625 4.644531 -7.34375 4.460938 -7.207031 C 4.003906 -6.863281 3.570312 -6.472656 3.132812 -6.109375 C 2.929688 -5.925781 2.722656 -5.765625 2.492188 -5.582031 C 2.128906 -6.132812 1.785156 -6.613281 1.464844 -7.113281 C 1.28125 -7.367188 1.234375 -7.617188 1.464844 -7.914062 C 1.945312 -8.511719 2.402344 -9.515625 2.425781 -10.273438 C 2.425781 -10.914062 1.898438 -11.074219 1.351562 -11.074219 C 1.050781 -11.074219 0.753906 -10.980469 0.503906 -10.773438 C -0.34375 -10.113281 -0.527344 -9.152344 -0.410156 -8.191406 C -0.320312 -7.230469 0.570312 -5.445312 1.03125 -4.53125 C 0.617188 -4.210938 0.230469 -3.910156 -0.136719 -3.570312 C -0.800781 -2.90625 -1.234375 -2.128906 -1.167969 -1.167969 C -1.097656 -0.367188 -0.367188 0.390625 0.433594 0.410156 C 1.554688 0.410156 2.996094 0.273438 3.476562 -0.914062 C 3.707031 -1.417969 3.636719 -1.945312 3.589844 -2.449219 C 3.5 -3.273438 3.273438 -4.070312 2.90625 -4.828125 C 3.636719 -5.46875 4.347656 -6.085938 5.054688 -6.679688 C 5.171875 -6.773438 5.285156 -6.816406 5.375 -6.910156 C 5.445312 -7 5.558594 -7.183594 5.511719 -7.230469 Z M 1.417969 -10.617188 C 1.464844 -10.617188 1.511719 -10.617188 1.554688 -10.59375 C 1.648438 -10.570312 1.714844 -10.339844 1.738281 -10.179688 C 1.738281 -9.65625 1.417969 -8.945312 0.847656 -8.375 C 0.800781 -8.96875 0.730469 -9.425781 0.753906 -9.90625 C 0.753906 -10.226562 1.074219 -10.617188 1.417969 -10.617188 Z M 0.824219 -0.136719 C 0.273438 -0.113281 -0.207031 -0.59375 -0.296875 -1.210938 C -0.390625 -1.945312 -0.0703125 -2.515625 0.390625 -3.019531 C 0.664062 -3.316406 1.007812 -3.570312 1.394531 -3.890625 C 1.851562 -3.042969 2.082031 -2.21875 2.082031 -1.328125 C 2.082031 -0.6875 1.511719 -0.160156 0.824219 -0.136719 Z M 0.824219 -0.136719 "/></g></g></g><g fill="#000000" fill-opacity="1"><g transform="translate(59.811046, 30.220026)"><g><path d="M 8.695312 -7.136719 C 8.394531 -6.703125 8.121094 -6.246094 7.824219 -5.789062 C 7.390625 -5.125 6.953125 -4.4375 6.519531 -3.75 C 6.335938 -3.5 6.109375 -3.292969 5.742188 -3.15625 C 5.742188 -3.339844 5.695312 -3.453125 5.71875 -3.570312 C 5.8125 -4.691406 5.695312 -5.789062 5.46875 -6.863281 C 5.398438 -7.230469 5.285156 -7.550781 4.894531 -7.664062 C 4.78125 -7.710938 4.691406 -7.710938 4.574219 -7.710938 C 3.980469 -7.710938 3.433594 -6.886719 3.15625 -6.429688 C 2.675781 -5.558594 2.21875 -4.667969 1.761719 -3.773438 C 1.601562 -3.5 1.441406 -3.226562 1.234375 -2.835938 C 1.191406 -3.042969 1.167969 -3.113281 1.167969 -3.15625 C 1.304688 -4.1875 1.417969 -5.214844 1.554688 -6.222656 C 1.601562 -6.40625 1.785156 -6.542969 1.921875 -6.703125 C 2.195312 -7 2.515625 -7.253906 2.746094 -7.574219 C 3.957031 -9.289062 5.101562 -11.003906 5.628906 -13.0625 C 5.742188 -13.519531 5.742188 -14 5.71875 -14.480469 C 5.695312 -14.734375 5.511719 -15.007812 5.332031 -15.191406 C 5.03125 -15.441406 4.667969 -15.578125 4.277344 -15.578125 C 3.820312 -15.578125 3.339844 -15.375 3.042969 -15.007812 C 2.3125 -14.070312 1.671875 -13.085938 1.328125 -11.941406 C 0.9375 -10.617188 0.570312 -9.289062 0.230469 -7.9375 C 0.046875 -7.320312 -0.0703125 -6.679688 -0.160156 -6.0625 C -0.410156 -4.4375 -0.640625 -2.8125 -0.871094 -1.191406 C -0.890625 -1.03125 -0.800781 -0.824219 -0.6875 -0.710938 C -0.527344 -0.570312 -0.183594 -0.503906 0.160156 -0.503906 C 0.457031 -0.503906 0.730469 -0.550781 0.871094 -0.640625 C 0.914062 -0.664062 0.984375 -0.730469 1.03125 -0.777344 C 1.144531 -1.007812 1.28125 -1.210938 1.394531 -1.441406 C 2.105469 -2.859375 2.792969 -4.253906 3.5 -5.652344 C 3.707031 -6.085938 3.957031 -6.519531 4.390625 -6.839844 C 4.371094 -6.703125 4.347656 -6.589844 4.324219 -6.453125 C 4.1875 -5.671875 4.050781 -4.871094 3.933594 -4.070312 C 3.84375 -3.5 4.09375 -3.066406 4.550781 -2.746094 C 4.828125 -2.5625 5.261719 -2.449219 5.652344 -2.449219 C 7.070312 -2.449219 8.808594 -5.925781 9.195312 -7.320312 C 9.128906 -7.367188 9.058594 -7.367188 9.015625 -7.367188 C 8.855469 -7.367188 8.761719 -7.253906 8.695312 -7.136719 Z M 4.484375 -15.144531 C 4.871094 -15.078125 5.054688 -14.777344 5.101562 -14.4375 C 5.191406 -13.910156 5.171875 -13.382812 5.011719 -12.855469 C 4.390625 -10.980469 3.410156 -9.3125 2.265625 -7.710938 C 2.171875 -7.550781 2.011719 -7.390625 1.898438 -7.253906 C 1.875 -7.253906 1.832031 -7.273438 1.808594 -7.273438 C 1.945312 -7.960938 2.058594 -8.648438 2.21875 -9.3125 C 2.5625 -10.683594 2.929688 -12.054688 3.292969 -13.429688 C 3.433594 -13.886719 3.773438 -15.144531 4.371094 -15.144531 C 4.414062 -15.144531 4.4375 -15.144531 4.484375 -15.144531 Z M 4.484375 -15.144531 "/></g></g></g><g fill="#000000" fill-opacity="1"><g transform="translate(68.297653, 30.220026)"><g/></g></g><g fill="#000000" fill-opacity="1"><g transform="translate(71.568766, 30.220026)"><g><path d="M 9.265625 -7.230469 C 9.152344 -7.296875 9.015625 -7.320312 8.875 -7.320312 C 8.625 -7.296875 8.535156 -7.070312 8.441406 -6.886719 C 7.847656 -5.789062 7.273438 -4.667969 6.632812 -3.589844 C 6.359375 -3.113281 5.949219 -2.746094 5.605469 -2.3125 C 5.558594 -2.332031 5.535156 -2.332031 5.492188 -2.355469 C 5.445312 -2.769531 5.351562 -3.179688 5.332031 -3.589844 C 5.308594 -4.644531 5.308594 -5.695312 5.308594 -6.75 C 5.308594 -6.933594 5.351562 -7.136719 5.421875 -7.320312 C 6.0625 -8.761719 6.726562 -10.179688 7.390625 -11.597656 C 7.753906 -12.375 7.984375 -13.222656 8.144531 -14.070312 C 8.214844 -14.320312 8.191406 -14.617188 8.167969 -14.894531 C 8.097656 -15.398438 7.710938 -15.558594 7.253906 -15.558594 C 6.863281 -15.558594 6.542969 -15.351562 6.246094 -15.097656 C 5.285156 -14.296875 4.621094 -13.246094 4.253906 -12.054688 C 3.980469 -11.140625 3.820312 -10.179688 3.613281 -9.242188 C 3.546875 -8.898438 3.5 -8.554688 3.410156 -8.167969 C 3.273438 -8.28125 3.179688 -8.351562 3.113281 -8.417969 C 2.882812 -8.695312 2.515625 -8.832031 2.128906 -8.832031 C 1.851562 -8.832031 1.554688 -8.761719 1.304688 -8.578125 C 0.847656 -8.28125 0.503906 -7.914062 0.230469 -7.433594 C -0.367188 -6.429688 -0.457031 -5.351562 -0.390625 -4.230469 C -0.34375 -3.292969 0.550781 -2.972656 1.351562 -2.972656 C 2.242188 -2.972656 2.8125 -3.660156 3.273438 -4.347656 C 3.386719 -4.117188 3.410156 -3.933594 3.433594 -3.773438 C 3.546875 -2.953125 3.613281 -2.402344 4.230469 -1.785156 C 4.484375 -1.578125 4.828125 -1.464844 5.171875 -1.464844 C 5.605469 -1.464844 6.015625 -1.625 6.269531 -1.96875 C 6.632812 -2.472656 7.023438 -2.972656 7.320312 -3.523438 C 7.984375 -4.621094 8.601562 -5.765625 9.21875 -6.886719 C 9.289062 -6.976562 9.3125 -7.183594 9.265625 -7.230469 Z M 3.316406 -5.8125 C 3.292969 -5.765625 3.292969 -5.695312 3.273438 -5.652344 C 3.132812 -5.261719 2.082031 -4.1875 1.53125 -3.910156 C 1.625 -5.445312 1.488281 -6.933594 2.058594 -8.328125 C 2.5625 -8.214844 2.882812 -7.9375 3.066406 -7.550781 C 3.292969 -7 3.363281 -6.40625 3.316406 -5.8125 Z M 7.230469 -14.757812 C 7.574219 -14.527344 7.527344 -14.183594 7.433594 -13.863281 C 7.136719 -12.605469 6.65625 -11.484375 6.152344 -10.296875 C 6.0625 -10.089844 5.925781 -9.90625 5.8125 -9.675781 C 5.71875 -10.410156 6.65625 -13.679688 7.230469 -14.757812 Z M 7.230469 -14.757812 "/></g></g></g><g fill="#000000" fill-opacity="1"><g transform="translate(80.009625, 30.220026)"><g><path d="M 5.582031 -6.816406 C 5.398438 -6.519531 5.214844 -6.222656 4.964844 -5.972656 C 4.4375 -5.421875 3.867188 -4.871094 3.292969 -4.347656 C 2.972656 -4.050781 2.5625 -3.933594 2.128906 -3.890625 C 1.761719 -3.890625 1.625 -3.957031 1.601562 -4.347656 C 1.53125 -5.078125 1.464844 -5.832031 2.242188 -6.292969 C 2.378906 -6.382812 2.492188 -6.519531 2.609375 -6.632812 C 3.316406 -7.113281 3.636719 -7.824219 3.820312 -8.601562 C 3.933594 -9.128906 3.796875 -9.355469 3.25 -9.425781 C 3.113281 -9.449219 2.972656 -9.449219 2.859375 -9.449219 C 0.890625 -9.449219 0.0703125 -7.503906 -0.296875 -5.878906 C -0.367188 -5.605469 -0.390625 -5.308594 -0.367188 -5.011719 C -0.25 -3.730469 0.640625 -3.226562 1.808594 -3.226562 C 2.722656 -3.226562 3.523438 -3.546875 4.164062 -4.300781 C 4.484375 -4.691406 4.871094 -5.054688 5.214844 -5.445312 C 5.558594 -5.8125 5.878906 -6.222656 6.199219 -6.632812 C 6.292969 -6.773438 6.335938 -6.953125 6.429688 -7.207031 C 6.039062 -7.207031 5.789062 -7.160156 5.582031 -6.816406 Z M 3.363281 -8.898438 C 3.292969 -7.960938 2.859375 -7.230469 1.992188 -6.726562 C 2.011719 -6.816406 1.992188 -6.910156 2.035156 -6.976562 C 2.265625 -7.550781 2.492188 -8.121094 2.746094 -8.695312 C 2.835938 -8.898438 2.882812 -8.96875 3.019531 -8.96875 C 3.113281 -8.96875 3.203125 -8.945312 3.363281 -8.898438 Z M 3.363281 -8.898438 "/></g></g></g><g fill="#000000" fill-opacity="1"><g transform="translate(85.636861, 30.220026)"><g><path d="M 5.511719 -7.230469 C 5.445312 -7.320312 5.285156 -7.433594 5.171875 -7.414062 C 4.917969 -7.390625 4.644531 -7.34375 4.460938 -7.207031 C 4.003906 -6.863281 3.570312 -6.472656 3.132812 -6.109375 C 2.929688 -5.925781 2.722656 -5.765625 2.492188 -5.582031 C 2.128906 -6.132812 1.785156 -6.613281 1.464844 -7.113281 C 1.28125 -7.367188 1.234375 -7.617188 1.464844 -7.914062 C 1.945312 -8.511719 2.402344 -9.515625 2.425781 -10.273438 C 2.425781 -10.914062 1.898438 -11.074219 1.351562 -11.074219 C 1.050781 -11.074219 0.753906 -10.980469 0.503906 -10.773438 C -0.34375 -10.113281 -0.527344 -9.152344 -0.410156 -8.191406 C -0.320312 -7.230469 0.570312 -5.445312 1.03125 -4.53125 C 0.617188 -4.210938 0.230469 -3.910156 -0.136719 -3.570312 C -0.800781 -2.90625 -1.234375 -2.128906 -1.167969 -1.167969 C -1.097656 -0.367188 -0.367188 0.390625 0.433594 0.410156 C 1.554688 0.410156 2.996094 0.273438 3.476562 -0.914062 C 3.707031 -1.417969 3.636719 -1.945312 3.589844 -2.449219 C 3.5 -3.273438 3.273438 -4.070312 2.90625 -4.828125 C 3.636719 -5.46875 4.347656 -6.085938 5.054688 -6.679688 C 5.171875 -6.773438 5.285156 -6.816406 5.375 -6.910156 C 5.445312 -7 5.558594 -7.183594 5.511719 -7.230469 Z M 1.417969 -10.617188 C 1.464844 -10.617188 1.511719 -10.617188 1.554688 -10.59375 C 1.648438 -10.570312 1.714844 -10.339844 1.738281 -10.179688 C 1.738281 -9.65625 1.417969 -8.945312 0.847656 -8.375 C 0.800781 -8.96875 0.730469 -9.425781 0.753906 -9.90625 C 0.753906 -10.226562 1.074219 -10.617188 1.417969 -10.617188 Z M 0.824219 -0.136719 C 0.273438 -0.113281 -0.207031 -0.59375 -0.296875 -1.210938 C -0.390625 -1.945312 -0.0703125 -2.515625 0.390625 -3.019531 C 0.664062 -3.316406 1.007812 -3.570312 1.394531 -3.890625 C 1.851562 -3.042969 2.082031 -2.21875 2.082031 -1.328125 C 2.082031 -0.6875 1.511719 -0.160156 0.824219 -0.136719 Z M 0.824219 -0.136719 "/></g></g></g><g fill="#000000" fill-opacity="1"><g transform="translate(90.303348, 30.220026)"><g><path d="M 4.964844 -7.09375 C 4.917969 -7.113281 4.871094 -7.136719 4.828125 -7.136719 C 4.734375 -7.136719 4.644531 -7.09375 4.550781 -7.070312 C 4.484375 -7.046875 4.414062 -6.953125 4.371094 -6.886719 C 4.140625 -6.542969 3.957031 -6.199219 3.730469 -5.855469 C 3.339844 -5.285156 2.929688 -4.710938 2.515625 -4.140625 C 2.402344 -3.980469 2.195312 -3.84375 2.011719 -3.730469 C 1.921875 -3.683594 1.832031 -3.660156 1.714844 -3.660156 C 1.578125 -3.660156 1.441406 -3.707031 1.351562 -3.820312 C 1.234375 -3.933594 1.210938 -4.1875 1.234375 -4.371094 C 1.328125 -4.871094 1.464844 -5.375 1.554688 -5.878906 C 1.714844 -6.566406 1.875 -7.253906 1.992188 -7.9375 C 2.082031 -8.417969 1.875 -8.671875 1.417969 -8.761719 C 1.28125 -8.785156 1.167969 -8.808594 1.050781 -8.808594 C 0.710938 -8.808594 0.480469 -8.625 0.367188 -8.28125 C 0.25 -7.847656 0.136719 -7.414062 0 -7 C -0.230469 -6.359375 -0.367188 -5.71875 -0.410156 -5.054688 C -0.433594 -4.550781 -0.320312 -4.140625 0.0703125 -3.773438 C 0.457031 -3.386719 0.824219 -3.316406 1.351562 -3.316406 C 2.21875 -3.316406 2.632812 -3.433594 3.019531 -3.910156 C 3.730469 -4.804688 4.414062 -5.71875 4.988281 -6.726562 C 5.054688 -6.839844 5.148438 -7.023438 4.964844 -7.09375 Z M 1.234375 -10.089844 C 1.578125 -10.089844 1.898438 -10.113281 2.21875 -10.203125 C 2.449219 -10.273438 2.515625 -10.476562 2.515625 -10.730469 C 2.492188 -10.980469 2.355469 -11.074219 2.105469 -11.09375 C 2.011719 -11.09375 1.921875 -11.09375 1.898438 -11.09375 C 1.394531 -11.09375 1.074219 -10.980469 0.9375 -10.707031 C 0.730469 -10.386719 0.871094 -10.089844 1.234375 -10.089844 Z M 1.234375 -10.089844 "/></g></g></g><g fill="#000000" fill-opacity="1"><g transform="translate(94.64959, 30.220026)"><g><path d="M 8.144531 -7.230469 C 7.390625 -6.863281 6.976562 -6.132812 6.335938 -5.652344 C 5.671875 -5.148438 5.011719 -4.691406 4.1875 -4.253906 C 4.390625 -4.917969 4.574219 -5.46875 4.710938 -6.039062 C 4.828125 -6.40625 4.917969 -6.773438 4.964844 -7.160156 C 5.011719 -7.550781 4.804688 -7.824219 4.414062 -7.800781 C 4.1875 -7.800781 3.957031 -7.753906 3.773438 -7.664062 C 3.5 -7.480469 3.273438 -7.253906 3.019531 -7.023438 C 2.5625 -6.632812 2.105469 -6.246094 1.671875 -5.855469 C 1.625 -5.878906 1.578125 -5.902344 1.53125 -5.925781 C 1.578125 -6.199219 1.578125 -6.472656 1.648438 -6.75 C 1.875 -7.847656 2.402344 -8.832031 2.8125 -9.859375 C 2.835938 -9.929688 2.90625 -10.019531 2.953125 -10.089844 C 3.019531 -10.25 3.15625 -10.296875 3.292969 -10.296875 C 3.339844 -10.296875 3.363281 -10.296875 3.410156 -10.296875 C 3.75 -10.226562 3.933594 -10.019531 3.957031 -9.65625 C 3.980469 -9.425781 4.027344 -9.175781 4.070312 -8.898438 C 4.414062 -9.035156 4.390625 -9.289062 4.4375 -9.496094 C 4.597656 -10.066406 4.484375 -10.339844 3.933594 -10.523438 C 3.730469 -10.59375 3.453125 -10.660156 3.203125 -10.660156 C 3.089844 -10.660156 2.972656 -10.660156 2.859375 -10.617188 C 2.152344 -10.386719 1.417969 -10.066406 1.03125 -9.3125 C 0.9375 -9.152344 0.800781 -9.015625 0.710938 -8.855469 C 0.207031 -7.9375 -0.160156 -7 -0.0234375 -5.902344 C 0.0703125 -5.101562 0.753906 -4.964844 1.441406 -4.964844 C 1.875 -4.964844 2.265625 -5.078125 2.632812 -5.398438 C 2.699219 -5.46875 2.792969 -5.511719 2.972656 -5.652344 C 2.769531 -4.941406 2.5625 -4.347656 2.402344 -3.730469 C 2.332031 -3.476562 2.195312 -3.386719 1.96875 -3.292969 C 1.121094 -2.953125 0.273438 -2.609375 -0.570312 -2.242188 C -2.058594 -1.578125 -3.179688 -0.527344 -4.070312 0.800781 C -4.597656 1.554688 -4.851562 2.355469 -4.78125 3.292969 C -4.710938 4.300781 -4.210938 4.851562 -3.226562 4.894531 C -3.15625 4.917969 -3.113281 4.917969 -3.042969 4.917969 C -2.90625 4.941406 -2.769531 4.941406 -2.632812 4.941406 C -1.625 4.941406 -0.753906 4.574219 -0.0234375 3.867188 C 0.410156 3.433594 0.871094 2.953125 1.167969 2.425781 C 2.105469 0.777344 3.113281 -0.847656 3.636719 -2.699219 C 3.796875 -3.25 4.117188 -3.570312 4.644531 -3.796875 C 6.0625 -4.4375 7.253906 -5.398438 8.054688 -6.773438 C 8.121094 -6.886719 8.28125 -7 8.144531 -7.230469 Z M -3.132812 4.347656 C -3.292969 4.347656 -3.5 4.164062 -3.613281 4.027344 C -3.980469 3.433594 -4.003906 2.746094 -3.84375 2.105469 C -3.75 1.691406 -3.546875 1.257812 -3.292969 0.914062 C -2.011719 -0.914062 -0.207031 -2.035156 1.898438 -2.722656 C 1.921875 -2.746094 1.96875 -2.722656 2.128906 -2.722656 C 1.945312 -2.265625 1.832031 -1.875 1.648438 -1.488281 C 1.074219 -0.230469 0.503906 1.03125 -0.0898438 2.265625 C -0.730469 3.5 -1.738281 4.347656 -3.132812 4.347656 Z M -3.132812 4.347656 "/></g></g></g><g fill="#000000" fill-opacity="1"><g transform="translate(102.24407, 30.220026)"><g><path d="M 6.726562 -7.113281 C 6.65625 -7.136719 6.566406 -7.183594 6.496094 -7.183594 C 6.453125 -7.183594 6.40625 -7.160156 6.382812 -7.136719 C 6.152344 -6.953125 5.949219 -6.75 5.765625 -6.542969 C 5.285156 -5.949219 4.710938 -5.46875 4.140625 -4.964844 C 4.117188 -5.171875 4.117188 -5.375 4.164062 -5.558594 C 4.230469 -6.039062 4.1875 -6.472656 4.003906 -6.910156 C 3.890625 -7.207031 3.707031 -7.296875 3.410156 -7.320312 C 3.042969 -7.320312 2.792969 -7.113281 2.5625 -6.863281 C 2.128906 -6.382812 1.714844 -5.855469 1.304688 -5.351562 C 1.257812 -5.351562 1.234375 -5.351562 1.191406 -5.351562 C 1.351562 -5.832031 1.511719 -6.933594 1.554688 -7.414062 C 1.578125 -7.914062 1.28125 -8.167969 0.824219 -8.191406 C 0.390625 -8.191406 0.160156 -7.960938 0.0703125 -7.480469 C 0 -7.023438 -0.0898438 -6.589844 -0.183594 -6.132812 C -0.34375 -5.46875 -0.527344 -4.804688 -0.640625 -4.140625 C -0.6875 -4.003906 -0.617188 -3.796875 -0.527344 -3.707031 C -0.410156 -3.589844 -0.183594 -3.523438 0.0703125 -3.523438 C 0.433594 -3.523438 0.847656 -3.636719 0.984375 -3.84375 C 1.441406 -4.460938 1.898438 -5.101562 2.355469 -5.71875 C 2.425781 -5.8125 2.539062 -5.855469 2.652344 -5.972656 C 2.652344 -5.695312 2.652344 -5.492188 2.652344 -5.308594 C 2.675781 -5.054688 2.722656 -4.78125 2.769531 -4.550781 C 2.882812 -4.09375 3.273438 -4.050781 3.660156 -4.050781 C 4.164062 -4.050781 4.621094 -4.210938 4.964844 -4.644531 C 5.351562 -5.101562 5.789062 -5.535156 6.175781 -5.992188 C 6.382812 -6.246094 6.566406 -6.542969 6.726562 -6.816406 C 6.773438 -6.910156 6.773438 -7.09375 6.726562 -7.113281 Z M 6.726562 -7.113281 "/></g></g></g><g fill="#000000" fill-opacity="1"><g transform="translate(108.35168, 30.220026)"><g><path d="M 5.582031 -6.816406 C 5.398438 -6.519531 5.214844 -6.222656 4.964844 -5.972656 C 4.4375 -5.421875 3.867188 -4.871094 3.292969 -4.347656 C 2.972656 -4.050781 2.5625 -3.933594 2.128906 -3.890625 C 1.761719 -3.890625 1.625 -3.957031 1.601562 -4.347656 C 1.53125 -5.078125 1.464844 -5.832031 2.242188 -6.292969 C 2.378906 -6.382812 2.492188 -6.519531 2.609375 -6.632812 C 3.316406 -7.113281 3.636719 -7.824219 3.820312 -8.601562 C 3.933594 -9.128906 3.796875 -9.355469 3.25 -9.425781 C 3.113281 -9.449219 2.972656 -9.449219 2.859375 -9.449219 C 0.890625 -9.449219 0.0703125 -7.503906 -0.296875 -5.878906 C -0.367188 -5.605469 -0.390625 -5.308594 -0.367188 -5.011719 C -0.25 -3.730469 0.640625 -3.226562 1.808594 -3.226562 C 2.722656 -3.226562 3.523438 -3.546875 4.164062 -4.300781 C 4.484375 -4.691406 4.871094 -5.054688 5.214844 -5.445312 C 5.558594 -5.8125 5.878906 -6.222656 6.199219 -6.632812 C 6.292969 -6.773438 6.335938 -6.953125 6.429688 -7.207031 C 6.039062 -7.207031 5.789062 -7.160156 5.582031 -6.816406 Z M 3.363281 -8.898438 C 3.292969 -7.960938 2.859375 -7.230469 1.992188 -6.726562 C 2.011719 -6.816406 1.992188 -6.910156 2.035156 -6.976562 C 2.265625 -7.550781 2.492188 -8.121094 2.746094 -8.695312 C 2.835938 -8.898438 2.882812 -8.96875 3.019531 -8.96875 C 3.113281 -8.96875 3.203125 -8.945312 3.363281 -8.898438 Z M 3.363281 -8.898438 "/></g></g></g><g clip-path="url(#24fd7edd84)"><g fill="#000000" fill-opacity="1"><g transform="translate(113.978916, 30.220026)"><g><path d="M 6.246094 -7.296875 C 5.878906 -7.296875 5.652344 -7.207031 5.46875 -6.863281 C 4.734375 -5.492188 3.363281 -3.683594 2.195312 -2.585938 C 2.082031 -2.449219 1.945312 -2.332031 1.714844 -2.332031 C 1.714844 -2.332031 1.691406 -2.332031 1.671875 -2.332031 C 1.691406 -2.539062 1.714844 -2.722656 1.714844 -2.90625 C 1.714844 -3.613281 1.875 -4.253906 2.171875 -4.871094 C 2.425781 -5.421875 2.609375 -5.972656 2.8125 -6.519531 C 2.929688 -6.863281 2.835938 -7.046875 2.472656 -7.136719 C 2.21875 -7.207031 1.921875 -7.207031 1.671875 -7.273438 C 1.464844 -7.296875 1.257812 -7.390625 1.007812 -7.480469 C 1.351562 -7.984375 1.648438 -8.351562 1.875 -8.761719 C 2.058594 -9.105469 2.195312 -9.472656 2.289062 -9.835938 C 2.378906 -10.203125 2.265625 -10.570312 1.921875 -10.773438 C 1.714844 -10.890625 1.488281 -10.957031 1.210938 -10.957031 C 0.710938 -10.957031 0.160156 -10.730469 -0.113281 -10.363281 C -0.527344 -9.835938 -0.710938 -9.242188 -0.6875 -8.554688 C -0.664062 -7.273438 0.160156 -6.816406 1.257812 -6.589844 C 0.984375 -5.789062 0.6875 -5.011719 0.410156 -4.253906 C 0.230469 -3.730469 0.0703125 -3.203125 0.113281 -2.632812 C 0.136719 -2.21875 0.34375 -1.96875 0.6875 -1.832031 C 0.960938 -1.738281 1.234375 -1.671875 1.511719 -1.671875 C 2.539062 -1.671875 3.226562 -2.539062 3.796875 -3.292969 C 4.390625 -4.070312 4.988281 -4.851562 5.558594 -5.628906 C 5.8125 -5.972656 6.015625 -6.3125 6.199219 -6.65625 C 6.292969 -6.839844 6.40625 -7.070312 6.246094 -7.296875 Z M 0.527344 -8.167969 C 0.570312 -9.058594 0.390625 -9.90625 1.234375 -10.457031 C 1.578125 -9.816406 1.328125 -8.921875 0.527344 -8.167969 Z M 0.527344 -8.167969 "/></g></g></g></g></svg>