<svg xmlns="http://www.w3.org/2000/svg" xmlns:xlink="http://www.w3.org/1999/xlink" width="143" zoomAndPan="magnify" viewBox="0 0 107.25 43.499998" height="58" preserveAspectRatio="xMidYMid meet" version="1.0"><defs><g/></defs><g fill="#000000" fill-opacity="1"><g transform="translate(12.816187, 28.176134)"><g><path d="M 9.0625 -11.101562 C 8.917969 -10.933594 8.800781 -10.722656 8.539062 -10.675781 C 8.539062 -10.769531 8.539062 -10.839844 8.539062 -10.886719 C 8.679688 -12.3125 8.847656 -13.734375 8.964844 -15.15625 C 8.988281 -15.441406 8.941406 -15.726562 8.847656 -15.988281 C 8.730469 -16.390625 8.609375 -16.554688 8.375 -16.554688 C 8.253906 -16.554688 8.136719 -16.507812 7.96875 -16.460938 C 7.851562 -16.4375 7.707031 -16.320312 7.636719 -16.222656 C 7.375 -15.890625 7.164062 -15.558594 6.949219 -15.226562 C 6.378906 -14.375 5.621094 -13.757812 4.742188 -13.257812 C 4.625 -13.210938 4.53125 -13.140625 4.4375 -13.070312 C 4.601562 -12.976562 4.71875 -12.902344 4.910156 -12.902344 C 5.765625 -12.949219 6.332031 -13.519531 7.042969 -14.042969 C 6.738281 -12.238281 6.355469 -10.460938 5.953125 -8.679688 C 5.882812 -8.324219 5.691406 -8.066406 5.382812 -7.804688 C 4.363281 -6.972656 3.390625 -6.097656 2.417969 -5.195312 C 1.777344 -4.648438 0.355469 -2.492188 0.09375 -1.566406 C -0.214844 -0.570312 0.308594 0.140625 1.351562 0.167969 C 1.519531 0.191406 1.683594 0.191406 1.851562 0.191406 C 1.96875 0.191406 2.085938 0.191406 2.207031 0.167969 C 4.363281 -0.09375 5.40625 -1.566406 6.144531 -3.464844 C 6.617188 -4.695312 7.070312 -5.953125 7.519531 -7.210938 C 7.757812 -7.875 7.945312 -8.515625 8.113281 -9.179688 C 8.207031 -9.488281 8.324219 -9.75 8.5625 -9.960938 C 9.25 -10.554688 9.75 -11.265625 10.152344 -12.097656 C 10.011719 -12.050781 9.867188 -12.003906 9.796875 -11.90625 C 9.535156 -11.644531 9.320312 -11.363281 9.0625 -11.101562 Z M 1.660156 -0.378906 C 1.589844 -0.355469 1.496094 -0.355469 1.421875 -0.355469 C 1.089844 -0.355469 0.902344 -0.570312 0.832031 -0.996094 C 0.757812 -1.445312 0.878906 -1.875 1.089844 -2.253906 C 1.496094 -2.917969 1.875 -3.582031 2.300781 -4.199219 C 3.082031 -5.359375 4.246094 -6.308594 5.335938 -7.1875 C 5.359375 -7.164062 5.40625 -7.140625 5.433594 -7.09375 C 5.003906 -5.976562 4.578125 -4.886719 4.175781 -3.746094 C 3.820312 -2.824219 3.296875 -1.96875 2.75 -1.136719 C 2.492188 -0.757812 2.136719 -0.472656 1.660156 -0.378906 Z M 1.660156 -0.378906 "/></g></g></g><g fill="#000000" fill-opacity="1"><g transform="translate(21.709558, 28.176134)"><g><path d="M 5.789062 -7.070312 C 5.597656 -6.761719 5.40625 -6.453125 5.148438 -6.191406 C 4.601562 -5.621094 4.007812 -5.050781 3.414062 -4.507812 C 3.082031 -4.199219 2.65625 -4.078125 2.207031 -4.03125 C 1.828125 -4.03125 1.683594 -4.105469 1.660156 -4.507812 C 1.589844 -5.265625 1.519531 -6.046875 2.324219 -6.523438 C 2.46875 -6.617188 2.585938 -6.761719 2.703125 -6.878906 C 3.4375 -7.375 3.769531 -8.113281 3.960938 -8.917969 C 4.078125 -9.464844 3.9375 -9.703125 3.367188 -9.773438 C 3.226562 -9.796875 3.082031 -9.796875 2.964844 -9.796875 C 0.925781 -9.796875 0.0703125 -7.78125 -0.308594 -6.097656 C -0.378906 -5.8125 -0.402344 -5.503906 -0.378906 -5.195312 C -0.261719 -3.867188 0.664062 -3.34375 1.875 -3.34375 C 2.824219 -3.34375 3.652344 -3.675781 4.316406 -4.460938 C 4.648438 -4.863281 5.050781 -5.242188 5.40625 -5.644531 C 5.765625 -6.023438 6.097656 -6.453125 6.429688 -6.878906 C 6.523438 -7.019531 6.570312 -7.210938 6.664062 -7.472656 C 6.261719 -7.472656 6 -7.425781 5.789062 -7.070312 Z M 3.488281 -9.226562 C 3.414062 -8.253906 2.964844 -7.496094 2.0625 -6.972656 C 2.085938 -7.070312 2.0625 -7.164062 2.109375 -7.234375 C 2.347656 -7.828125 2.585938 -8.421875 2.847656 -9.011719 C 2.941406 -9.226562 2.988281 -9.296875 3.132812 -9.296875 C 3.226562 -9.296875 3.320312 -9.273438 3.488281 -9.226562 Z M 3.488281 -9.226562 "/></g></g></g><g fill="#000000" fill-opacity="1"><g transform="translate(27.543611, 28.176134)"><g><path d="M 5.714844 -7.496094 C 5.644531 -7.589844 5.480469 -7.707031 5.359375 -7.683594 C 5.101562 -7.660156 4.816406 -7.613281 4.625 -7.472656 C 4.152344 -7.117188 3.699219 -6.710938 3.25 -6.332031 C 3.035156 -6.144531 2.824219 -5.976562 2.585938 -5.789062 C 2.207031 -6.355469 1.851562 -6.855469 1.519531 -7.375 C 1.328125 -7.636719 1.28125 -7.898438 1.519531 -8.207031 C 2.015625 -8.824219 2.492188 -9.867188 2.515625 -10.648438 C 2.515625 -11.3125 1.96875 -11.480469 1.398438 -11.480469 C 1.089844 -11.480469 0.78125 -11.386719 0.523438 -11.171875 C -0.355469 -10.484375 -0.546875 -9.488281 -0.425781 -8.492188 C -0.332031 -7.496094 0.59375 -5.644531 1.066406 -4.695312 C 0.640625 -4.363281 0.238281 -4.054688 -0.140625 -3.699219 C -0.832031 -3.011719 -1.28125 -2.207031 -1.210938 -1.210938 C -1.136719 -0.378906 -0.378906 0.402344 0.449219 0.425781 C 1.613281 0.425781 3.105469 0.285156 3.605469 -0.949219 C 3.84375 -1.46875 3.769531 -2.015625 3.722656 -2.539062 C 3.628906 -3.390625 3.390625 -4.222656 3.011719 -5.003906 C 3.769531 -5.667969 4.507812 -6.308594 5.242188 -6.925781 C 5.359375 -7.019531 5.480469 -7.070312 5.574219 -7.164062 C 5.644531 -7.257812 5.765625 -7.449219 5.714844 -7.496094 Z M 1.46875 -11.007812 C 1.519531 -11.007812 1.566406 -11.007812 1.613281 -10.980469 C 1.707031 -10.957031 1.777344 -10.722656 1.800781 -10.554688 C 1.800781 -10.011719 1.46875 -9.273438 0.878906 -8.679688 C 0.832031 -9.296875 0.757812 -9.773438 0.78125 -10.269531 C 0.78125 -10.601562 1.113281 -11.007812 1.46875 -11.007812 Z M 0.855469 -0.140625 C 0.285156 -0.117188 -0.214844 -0.617188 -0.308594 -1.257812 C -0.402344 -2.015625 -0.0703125 -2.609375 0.402344 -3.132812 C 0.6875 -3.4375 1.042969 -3.699219 1.445312 -4.03125 C 1.921875 -3.15625 2.160156 -2.300781 2.160156 -1.375 C 2.160156 -0.710938 1.566406 -0.167969 0.855469 -0.140625 Z M 0.855469 -0.140625 "/></g></g></g><g fill="#000000" fill-opacity="1"><g transform="translate(32.38161, 28.176134)"><g><path d="M 5.714844 -7.496094 C 5.644531 -7.589844 5.480469 -7.707031 5.359375 -7.683594 C 5.101562 -7.660156 4.816406 -7.613281 4.625 -7.472656 C 4.152344 -7.117188 3.699219 -6.710938 3.25 -6.332031 C 3.035156 -6.144531 2.824219 -5.976562 2.585938 -5.789062 C 2.207031 -6.355469 1.851562 -6.855469 1.519531 -7.375 C 1.328125 -7.636719 1.28125 -7.898438 1.519531 -8.207031 C 2.015625 -8.824219 2.492188 -9.867188 2.515625 -10.648438 C 2.515625 -11.3125 1.96875 -11.480469 1.398438 -11.480469 C 1.089844 -11.480469 0.78125 -11.386719 0.523438 -11.171875 C -0.355469 -10.484375 -0.546875 -9.488281 -0.425781 -8.492188 C -0.332031 -7.496094 0.59375 -5.644531 1.066406 -4.695312 C 0.640625 -4.363281 0.238281 -4.054688 -0.140625 -3.699219 C -0.832031 -3.011719 -1.28125 -2.207031 -1.210938 -1.210938 C -1.136719 -0.378906 -0.378906 0.402344 0.449219 0.425781 C 1.613281 0.425781 3.105469 0.285156 3.605469 -0.949219 C 3.84375 -1.46875 3.769531 -2.015625 3.722656 -2.539062 C 3.628906 -3.390625 3.390625 -4.222656 3.011719 -5.003906 C 3.769531 -5.667969 4.507812 -6.308594 5.242188 -6.925781 C 5.359375 -7.019531 5.480469 -7.070312 5.574219 -7.164062 C 5.644531 -7.257812 5.765625 -7.449219 5.714844 -7.496094 Z M 1.46875 -11.007812 C 1.519531 -11.007812 1.566406 -11.007812 1.613281 -10.980469 C 1.707031 -10.957031 1.777344 -10.722656 1.800781 -10.554688 C 1.800781 -10.011719 1.46875 -9.273438 0.878906 -8.679688 C 0.832031 -9.296875 0.757812 -9.773438 0.78125 -10.269531 C 0.78125 -10.601562 1.113281 -11.007812 1.46875 -11.007812 Z M 0.855469 -0.140625 C 0.285156 -0.117188 -0.214844 -0.617188 -0.308594 -1.257812 C -0.402344 -2.015625 -0.0703125 -2.609375 0.402344 -3.132812 C 0.6875 -3.4375 1.042969 -3.699219 1.445312 -4.03125 C 1.921875 -3.15625 2.160156 -2.300781 2.160156 -1.375 C 2.160156 -0.710938 1.566406 -0.167969 0.855469 -0.140625 Z M 0.855469 -0.140625 "/></g></g></g><g fill="#000000" fill-opacity="1"><g transform="translate(37.219608, 28.176134)"><g><path d="M 5.148438 -7.351562 C 5.101562 -7.375 5.050781 -7.402344 5.003906 -7.402344 C 4.910156 -7.402344 4.816406 -7.351562 4.71875 -7.328125 C 4.648438 -7.304688 4.578125 -7.210938 4.53125 -7.140625 C 4.292969 -6.785156 4.105469 -6.429688 3.867188 -6.074219 C 3.464844 -5.480469 3.035156 -4.886719 2.609375 -4.292969 C 2.492188 -4.128906 2.277344 -3.984375 2.085938 -3.867188 C 1.992188 -3.820312 1.898438 -3.796875 1.777344 -3.796875 C 1.636719 -3.796875 1.496094 -3.84375 1.398438 -3.960938 C 1.28125 -4.078125 1.257812 -4.339844 1.28125 -4.53125 C 1.375 -5.050781 1.519531 -5.574219 1.613281 -6.097656 C 1.777344 -6.808594 1.945312 -7.519531 2.0625 -8.230469 C 2.160156 -8.730469 1.945312 -8.988281 1.46875 -9.085938 C 1.328125 -9.109375 1.210938 -9.132812 1.089844 -9.132812 C 0.734375 -9.132812 0.5 -8.941406 0.378906 -8.585938 C 0.261719 -8.136719 0.140625 -7.683594 0 -7.257812 C -0.238281 -6.59375 -0.378906 -5.929688 -0.425781 -5.242188 C -0.449219 -4.71875 -0.332031 -4.292969 0.0703125 -3.914062 C 0.472656 -3.511719 0.855469 -3.4375 1.398438 -3.4375 C 2.300781 -3.4375 2.726562 -3.558594 3.132812 -4.054688 C 3.867188 -4.980469 4.578125 -5.929688 5.171875 -6.972656 C 5.242188 -7.09375 5.335938 -7.28125 5.148438 -7.351562 Z M 1.28125 -10.460938 C 1.636719 -10.460938 1.96875 -10.484375 2.300781 -10.578125 C 2.539062 -10.648438 2.609375 -10.863281 2.609375 -11.125 C 2.585938 -11.386719 2.441406 -11.480469 2.183594 -11.503906 C 2.085938 -11.503906 1.992188 -11.503906 1.96875 -11.503906 C 1.445312 -11.503906 1.113281 -11.386719 0.972656 -11.101562 C 0.757812 -10.769531 0.902344 -10.460938 1.28125 -10.460938 Z M 1.28125 -10.460938 "/></g></g></g><g fill="#000000" fill-opacity="1"><g transform="translate(41.725585, 28.176134)"><g><path d="M 5.21875 -7.042969 C 4.507812 -6.046875 3.699219 -5.171875 2.609375 -4.578125 C 2.394531 -4.460938 2.136719 -4.316406 1.898438 -4.316406 C 1.800781 -4.316406 1.707031 -4.339844 1.613281 -4.410156 C 1.304688 -4.601562 1.28125 -5.027344 1.328125 -5.40625 C 1.445312 -6.378906 1.636719 -7.375 2.183594 -8.230469 C 2.300781 -8.445312 2.417969 -8.632812 2.5625 -8.824219 C 2.585938 -8.824219 2.632812 -8.800781 2.65625 -8.777344 C 2.632812 -8.46875 2.585938 -8.183594 2.5625 -7.804688 C 3.082031 -7.945312 3.34375 -8.253906 3.390625 -8.777344 C 3.4375 -9.132812 3.296875 -9.371094 2.941406 -9.441406 C 2.800781 -9.464844 2.65625 -9.488281 2.539062 -9.488281 C 2.160156 -9.488281 1.828125 -9.371094 1.519531 -9.15625 C 0.0703125 -8.160156 -0.285156 -6.664062 -0.355469 -5.050781 C -0.402344 -4.4375 0.167969 -3.84375 0.757812 -3.699219 C 0.996094 -3.652344 1.234375 -3.605469 1.496094 -3.605469 C 2.824219 -3.605469 3.796875 -4.460938 4.695312 -5.335938 C 5.195312 -5.835938 5.691406 -6.378906 6.167969 -6.925781 C 6.261719 -6.996094 6.332031 -7.117188 6.40625 -7.210938 C 6.167969 -7.375 5.976562 -7.449219 5.8125 -7.449219 C 5.597656 -7.449219 5.40625 -7.304688 5.21875 -7.042969 Z M 5.21875 -7.042969 "/></g></g></g><g fill="#000000" fill-opacity="1"><g transform="translate(46.966748, 28.176134)"><g><path d="M 6.640625 -7.09375 C 6.167969 -6.5 5.667969 -5.882812 5.171875 -5.289062 C 4.863281 -4.910156 4.246094 -4.53125 3.867188 -4.4375 C 3.796875 -4.792969 3.960938 -5.074219 4.078125 -5.359375 C 4.246094 -5.765625 4.410156 -6.144531 4.578125 -6.523438 C 4.671875 -6.761719 4.601562 -6.949219 4.386719 -7.140625 C 4.152344 -7.328125 4.007812 -7.425781 3.84375 -7.425781 C 3.675781 -7.425781 3.511719 -7.328125 3.25 -7.117188 C 2.726562 -6.710938 2.183594 -6.355469 1.636719 -5.976562 C 1.589844 -6 1.542969 -6.046875 1.496094 -6.097656 C 1.777344 -7.566406 2.371094 -8.871094 3.464844 -9.9375 C 3.890625 -9.773438 4.105469 -9.511719 4.199219 -9.132812 C 4.246094 -8.871094 4.246094 -8.539062 4.554688 -8.421875 C 5.195312 -8.917969 5.195312 -9.75 4.554688 -10.199219 C 4.078125 -10.53125 3.605469 -10.625 3.035156 -10.625 C 2.5625 -10.625 2.183594 -10.507812 1.851562 -10.152344 C 1.28125 -9.582031 0.757812 -8.941406 0.355469 -8.230469 C -0.046875 -7.496094 -0.214844 -6.738281 -0.117188 -5.90625 C -0.09375 -5.550781 0.0703125 -5.335938 0.378906 -5.21875 C 0.6875 -5.125 0.972656 -5.050781 1.257812 -5.050781 C 1.636719 -5.050781 1.96875 -5.171875 2.300781 -5.480469 C 2.417969 -5.597656 2.585938 -5.667969 2.800781 -5.835938 C 2.632812 -5.21875 2.585938 -4.71875 2.773438 -4.222656 C 2.871094 -3.914062 3.082031 -3.746094 3.390625 -3.722656 C 3.84375 -3.722656 4.199219 -3.746094 4.601562 -4.007812 C 5.859375 -4.792969 6.902344 -6.046875 7.757812 -7.257812 C 7.496094 -7.375 7.328125 -7.449219 7.164062 -7.449219 C 6.972656 -7.449219 6.832031 -7.328125 6.640625 -7.09375 Z M 6.640625 -7.09375 "/></g></g></g><g fill="#000000" fill-opacity="1"><g transform="translate(53.630844, 28.176134)"><g/></g></g><g fill="#000000" fill-opacity="1"><g transform="translate(57.022184, 28.176134)"><g><path d="M 5.789062 -7.070312 C 5.597656 -6.761719 5.40625 -6.453125 5.148438 -6.191406 C 4.601562 -5.621094 4.007812 -5.050781 3.414062 -4.507812 C 3.082031 -4.199219 2.65625 -4.078125 2.207031 -4.03125 C 1.828125 -4.03125 1.683594 -4.105469 1.660156 -4.507812 C 1.589844 -5.265625 1.519531 -6.046875 2.324219 -6.523438 C 2.46875 -6.617188 2.585938 -6.761719 2.703125 -6.878906 C 3.4375 -7.375 3.769531 -8.113281 3.960938 -8.917969 C 4.078125 -9.464844 3.9375 -9.703125 3.367188 -9.773438 C 3.226562 -9.796875 3.082031 -9.796875 2.964844 -9.796875 C 0.925781 -9.796875 0.0703125 -7.78125 -0.308594 -6.097656 C -0.378906 -5.8125 -0.402344 -5.503906 -0.378906 -5.195312 C -0.261719 -3.867188 0.664062 -3.34375 1.875 -3.34375 C 2.824219 -3.34375 3.652344 -3.675781 4.316406 -4.460938 C 4.648438 -4.863281 5.050781 -5.242188 5.40625 -5.644531 C 5.765625 -6.023438 6.097656 -6.453125 6.429688 -6.878906 C 6.523438 -7.019531 6.570312 -7.210938 6.664062 -7.472656 C 6.261719 -7.472656 6 -7.425781 5.789062 -7.070312 Z M 3.488281 -9.226562 C 3.414062 -8.253906 2.964844 -7.496094 2.0625 -6.972656 C 2.085938 -7.070312 2.0625 -7.164062 2.109375 -7.234375 C 2.347656 -7.828125 2.585938 -8.421875 2.847656 -9.011719 C 2.941406 -9.226562 2.988281 -9.296875 3.132812 -9.296875 C 3.226562 -9.296875 3.320312 -9.273438 3.488281 -9.226562 Z M 3.488281 -9.226562 "/></g></g></g><g fill="#000000" fill-opacity="1"><g transform="translate(62.856237, 28.176134)"><g><path d="M 5.714844 -7.496094 C 5.644531 -7.589844 5.480469 -7.707031 5.359375 -7.683594 C 5.101562 -7.660156 4.816406 -7.613281 4.625 -7.472656 C 4.152344 -7.117188 3.699219 -6.710938 3.25 -6.332031 C 3.035156 -6.144531 2.824219 -5.976562 2.585938 -5.789062 C 2.207031 -6.355469 1.851562 -6.855469 1.519531 -7.375 C 1.328125 -7.636719 1.28125 -7.898438 1.519531 -8.207031 C 2.015625 -8.824219 2.492188 -9.867188 2.515625 -10.648438 C 2.515625 -11.3125 1.96875 -11.480469 1.398438 -11.480469 C 1.089844 -11.480469 0.78125 -11.386719 0.523438 -11.171875 C -0.355469 -10.484375 -0.546875 -9.488281 -0.425781 -8.492188 C -0.332031 -7.496094 0.59375 -5.644531 1.066406 -4.695312 C 0.640625 -4.363281 0.238281 -4.054688 -0.140625 -3.699219 C -0.832031 -3.011719 -1.28125 -2.207031 -1.210938 -1.210938 C -1.136719 -0.378906 -0.378906 0.402344 0.449219 0.425781 C 1.613281 0.425781 3.105469 0.285156 3.605469 -0.949219 C 3.84375 -1.46875 3.769531 -2.015625 3.722656 -2.539062 C 3.628906 -3.390625 3.390625 -4.222656 3.011719 -5.003906 C 3.769531 -5.667969 4.507812 -6.308594 5.242188 -6.925781 C 5.359375 -7.019531 5.480469 -7.070312 5.574219 -7.164062 C 5.644531 -7.257812 5.765625 -7.449219 5.714844 -7.496094 Z M 1.46875 -11.007812 C 1.519531 -11.007812 1.566406 -11.007812 1.613281 -10.980469 C 1.707031 -10.957031 1.777344 -10.722656 1.800781 -10.554688 C 1.800781 -10.011719 1.46875 -9.273438 0.878906 -8.679688 C 0.832031 -9.296875 0.757812 -9.773438 0.78125 -10.269531 C 0.78125 -10.601562 1.113281 -11.007812 1.46875 -11.007812 Z M 0.855469 -0.140625 C 0.285156 -0.117188 -0.214844 -0.617188 -0.308594 -1.257812 C -0.402344 -2.015625 -0.0703125 -2.609375 0.402344 -3.132812 C 0.6875 -3.4375 1.042969 -3.699219 1.445312 -4.03125 C 1.921875 -3.15625 2.160156 -2.300781 2.160156 -1.375 C 2.160156 -0.710938 1.566406 -0.167969 0.855469 -0.140625 Z M 0.855469 -0.140625 "/></g></g></g><g fill="#000000" fill-opacity="1"><g transform="translate(67.694236, 28.176134)"><g><path d="M 6.902344 -14.445312 C 6.832031 -14.636719 6.738281 -14.683594 6.617188 -14.683594 C 6.546875 -14.683594 6.476562 -14.660156 6.378906 -14.636719 C 5.714844 -14.421875 3.984375 -14.136719 3.367188 -14.066406 C 3.34375 -14.183594 3.320312 -14.230469 3.34375 -14.28125 C 3.390625 -14.613281 3.488281 -14.917969 3.535156 -15.226562 C 3.558594 -15.609375 3.558594 -15.988281 3.535156 -16.367188 C 3.464844 -16.746094 3.105469 -16.816406 2.773438 -16.816406 C 2.417969 -16.816406 2.183594 -16.652344 2.160156 -16.105469 C 2.085938 -15.324219 1.875 -14.539062 1.589844 -13.804688 C 0.0703125 -13.589844 0.191406 -13.542969 -1.304688 -13.332031 C -1.496094 -13.28125 -1.707031 -13.140625 -1.875 -13.070312 C -2.015625 -12.976562 -2.160156 -12.832031 -2.160156 -12.691406 C -2.183594 -12.570312 -2.085938 -12.546875 -1.992188 -12.546875 C -1.898438 -12.546875 -1.800781 -12.570312 -1.730469 -12.570312 C -0.59375 -12.714844 0.5 -13.117188 1.421875 -13.117188 C 1.398438 -12.976562 1.351562 -12.902344 1.328125 -12.832031 C 1.164062 -12.285156 0.972656 -11.742188 0.804688 -11.195312 C 0.167969 -8.917969 -0.0703125 -6.570312 -0.546875 -4.269531 C -0.664062 -3.699219 -0.664062 -3.105469 -0.640625 -2.515625 C -0.640625 -1.375 0.261719 -0.640625 1.351562 -0.640625 C 1.96875 -0.640625 2.5625 -0.878906 2.917969 -1.304688 C 3.226562 -1.683594 3.558594 -2.039062 3.820312 -2.441406 C 4.792969 -3.914062 5.714844 -5.382812 6.523438 -6.949219 C 6.640625 -7.1875 6.710938 -7.425781 6.476562 -7.613281 C 6.378906 -7.683594 6.285156 -7.734375 6.167969 -7.734375 C 5.789062 -7.734375 5.40625 -7.117188 5.242188 -6.832031 C 4.792969 -6 4.339844 -5.148438 3.9375 -4.292969 C 3.4375 -3.296875 2.800781 -2.394531 2.039062 -1.566406 C 1.921875 -1.421875 1.730469 -1.328125 1.566406 -1.210938 C 1.210938 -1.519531 1.113281 -1.898438 1.113281 -2.277344 C 1.113281 -2.824219 1.113281 -3.367188 1.1875 -3.890625 C 1.613281 -7.09375 2.347656 -10.269531 3.203125 -13.402344 C 4.4375 -13.566406 4.695312 -13.613281 5.882812 -13.78125 C 6.144531 -13.828125 6.355469 -13.875 6.59375 -13.972656 C 6.855469 -14.066406 6.972656 -14.230469 6.902344 -14.445312 Z M 6.902344 -14.445312 "/></g></g></g><g fill="#000000" fill-opacity="1"><g transform="translate(73.077684, 28.176134)"><g><path d="M 1.800781 -10.601562 C 1.992188 -10.484375 2.160156 -10.316406 2.300781 -10.34375 C 2.609375 -10.390625 2.894531 -10.507812 3.179688 -10.675781 C 3.320312 -10.746094 3.414062 -10.910156 3.511719 -11.054688 C 3.699219 -11.339844 3.890625 -11.621094 4.078125 -11.929688 C 3.914062 -12.097656 3.746094 -12.167969 3.582031 -12.167969 C 2.917969 -12.167969 2.0625 -11.125 1.800781 -10.601562 Z M 5.789062 -7.070312 C 5.597656 -6.761719 5.40625 -6.453125 5.148438 -6.191406 C 4.601562 -5.621094 4.007812 -5.050781 3.414062 -4.507812 C 3.082031 -4.199219 2.65625 -4.078125 2.207031 -4.03125 C 1.828125 -4.03125 1.683594 -4.105469 1.660156 -4.507812 C 1.589844 -5.265625 1.519531 -6.046875 2.324219 -6.523438 C 2.46875 -6.617188 2.585938 -6.761719 2.703125 -6.878906 C 3.4375 -7.375 3.769531 -8.113281 3.960938 -8.917969 C 4.078125 -9.464844 3.9375 -9.703125 3.367188 -9.773438 C 3.226562 -9.796875 3.082031 -9.796875 2.964844 -9.796875 C 0.925781 -9.796875 0.0703125 -7.78125 -0.308594 -6.097656 C -0.378906 -5.8125 -0.402344 -5.503906 -0.378906 -5.195312 C -0.261719 -3.867188 0.664062 -3.34375 1.875 -3.34375 C 2.824219 -3.34375 3.652344 -3.675781 4.316406 -4.460938 C 4.648438 -4.863281 5.050781 -5.242188 5.40625 -5.644531 C 5.765625 -6.023438 6.097656 -6.453125 6.429688 -6.878906 C 6.523438 -7.019531 6.570312 -7.210938 6.664062 -7.472656 C 6.261719 -7.472656 6 -7.425781 5.789062 -7.070312 Z M 3.488281 -9.226562 C 3.414062 -8.253906 2.964844 -7.496094 2.0625 -6.972656 C 2.085938 -7.070312 2.0625 -7.164062 2.109375 -7.234375 C 2.347656 -7.828125 2.585938 -8.421875 2.847656 -9.011719 C 2.941406 -9.226562 2.988281 -9.296875 3.132812 -9.296875 C 3.226562 -9.296875 3.320312 -9.273438 3.488281 -9.226562 Z M 3.488281 -9.226562 "/></g></g></g><g fill="#000000" fill-opacity="1"><g transform="translate(78.911737, 28.176134)"><g><path d="M 6.902344 -14.445312 C 6.832031 -14.636719 6.738281 -14.683594 6.617188 -14.683594 C 6.546875 -14.683594 6.476562 -14.660156 6.378906 -14.636719 C 5.714844 -14.421875 3.984375 -14.136719 3.367188 -14.066406 C 3.34375 -14.183594 3.320312 -14.230469 3.34375 -14.28125 C 3.390625 -14.613281 3.488281 -14.917969 3.535156 -15.226562 C 3.558594 -15.609375 3.558594 -15.988281 3.535156 -16.367188 C 3.464844 -16.746094 3.105469 -16.816406 2.773438 -16.816406 C 2.417969 -16.816406 2.183594 -16.652344 2.160156 -16.105469 C 2.085938 -15.324219 1.875 -14.539062 1.589844 -13.804688 C 0.0703125 -13.589844 0.191406 -13.542969 -1.304688 -13.332031 C -1.496094 -13.28125 -1.707031 -13.140625 -1.875 -13.070312 C -2.015625 -12.976562 -2.160156 -12.832031 -2.160156 -12.691406 C -2.183594 -12.570312 -2.085938 -12.546875 -1.992188 -12.546875 C -1.898438 -12.546875 -1.800781 -12.570312 -1.730469 -12.570312 C -0.59375 -12.714844 0.5 -13.117188 1.421875 -13.117188 C 1.398438 -12.976562 1.351562 -12.902344 1.328125 -12.832031 C 1.164062 -12.285156 0.972656 -11.742188 0.804688 -11.195312 C 0.167969 -8.917969 -0.0703125 -6.570312 -0.546875 -4.269531 C -0.664062 -3.699219 -0.664062 -3.105469 -0.640625 -2.515625 C -0.640625 -1.375 0.261719 -0.640625 1.351562 -0.640625 C 1.96875 -0.640625 2.5625 -0.878906 2.917969 -1.304688 C 3.226562 -1.683594 3.558594 -2.039062 3.820312 -2.441406 C 4.792969 -3.914062 5.714844 -5.382812 6.523438 -6.949219 C 6.640625 -7.1875 6.710938 -7.425781 6.476562 -7.613281 C 6.378906 -7.683594 6.285156 -7.734375 6.167969 -7.734375 C 5.789062 -7.734375 5.40625 -7.117188 5.242188 -6.832031 C 4.792969 -6 4.339844 -5.148438 3.9375 -4.292969 C 3.4375 -3.296875 2.800781 -2.394531 2.039062 -1.566406 C 1.921875 -1.421875 1.730469 -1.328125 1.566406 -1.210938 C 1.210938 -1.519531 1.113281 -1.898438 1.113281 -2.277344 C 1.113281 -2.824219 1.113281 -3.367188 1.1875 -3.890625 C 1.613281 -7.09375 2.347656 -10.269531 3.203125 -13.402344 C 4.4375 -13.566406 4.695312 -13.613281 5.882812 -13.78125 C 6.144531 -13.828125 6.355469 -13.875 6.59375 -13.972656 C 6.855469 -14.066406 6.972656 -14.230469 6.902344 -14.445312 Z M 6.902344 -14.445312 "/></g></g></g><g fill="#000000" fill-opacity="1"><g transform="translate(84.295186, 28.176134)"><g><path d="M 5.148438 -7.351562 C 5.101562 -7.375 5.050781 -7.402344 5.003906 -7.402344 C 4.910156 -7.402344 4.816406 -7.351562 4.71875 -7.328125 C 4.648438 -7.304688 4.578125 -7.210938 4.53125 -7.140625 C 4.292969 -6.785156 4.105469 -6.429688 3.867188 -6.074219 C 3.464844 -5.480469 3.035156 -4.886719 2.609375 -4.292969 C 2.492188 -4.128906 2.277344 -3.984375 2.085938 -3.867188 C 1.992188 -3.820312 1.898438 -3.796875 1.777344 -3.796875 C 1.636719 -3.796875 1.496094 -3.84375 1.398438 -3.960938 C 1.28125 -4.078125 1.257812 -4.339844 1.28125 -4.53125 C 1.375 -5.050781 1.519531 -5.574219 1.613281 -6.097656 C 1.777344 -6.808594 1.945312 -7.519531 2.0625 -8.230469 C 2.160156 -8.730469 1.945312 -8.988281 1.46875 -9.085938 C 1.328125 -9.109375 1.210938 -9.132812 1.089844 -9.132812 C 0.734375 -9.132812 0.5 -8.941406 0.378906 -8.585938 C 0.261719 -8.136719 0.140625 -7.683594 0 -7.257812 C -0.238281 -6.59375 -0.378906 -5.929688 -0.425781 -5.242188 C -0.449219 -4.71875 -0.332031 -4.292969 0.0703125 -3.914062 C 0.472656 -3.511719 0.855469 -3.4375 1.398438 -3.4375 C 2.300781 -3.4375 2.726562 -3.558594 3.132812 -4.054688 C 3.867188 -4.980469 4.578125 -5.929688 5.171875 -6.972656 C 5.242188 -7.09375 5.335938 -7.28125 5.148438 -7.351562 Z M 1.28125 -10.460938 C 1.636719 -10.460938 1.96875 -10.484375 2.300781 -10.578125 C 2.539062 -10.648438 2.609375 -10.863281 2.609375 -11.125 C 2.585938 -11.386719 2.441406 -11.480469 2.183594 -11.503906 C 2.085938 -11.503906 1.992188 -11.503906 1.96875 -11.503906 C 1.445312 -11.503906 1.113281 -11.386719 0.972656 -11.101562 C 0.757812 -10.769531 0.902344 -10.460938 1.28125 -10.460938 Z M 1.28125 -10.460938 "/></g></g></g><g fill="#000000" fill-opacity="1"><g transform="translate(88.801162, 28.176134)"><g><path d="M 5.21875 -7.042969 C 4.507812 -6.046875 3.699219 -5.171875 2.609375 -4.578125 C 2.394531 -4.460938 2.136719 -4.316406 1.898438 -4.316406 C 1.800781 -4.316406 1.707031 -4.339844 1.613281 -4.410156 C 1.304688 -4.601562 1.28125 -5.027344 1.328125 -5.40625 C 1.445312 -6.378906 1.636719 -7.375 2.183594 -8.230469 C 2.300781 -8.445312 2.417969 -8.632812 2.5625 -8.824219 C 2.585938 -8.824219 2.632812 -8.800781 2.65625 -8.777344 C 2.632812 -8.46875 2.585938 -8.183594 2.5625 -7.804688 C 3.082031 -7.945312 3.34375 -8.253906 3.390625 -8.777344 C 3.4375 -9.132812 3.296875 -9.371094 2.941406 -9.441406 C 2.800781 -9.464844 2.65625 -9.488281 2.539062 -9.488281 C 2.160156 -9.488281 1.828125 -9.371094 1.519531 -9.15625 C 0.0703125 -8.160156 -0.285156 -6.664062 -0.355469 -5.050781 C -0.402344 -4.4375 0.167969 -3.84375 0.757812 -3.699219 C 0.996094 -3.652344 1.234375 -3.605469 1.496094 -3.605469 C 2.824219 -3.605469 3.796875 -4.460938 4.695312 -5.335938 C 5.195312 -5.835938 5.691406 -6.378906 6.167969 -6.925781 C 6.261719 -6.996094 6.332031 -7.117188 6.40625 -7.210938 C 6.167969 -7.375 5.976562 -7.449219 5.8125 -7.449219 C 5.597656 -7.449219 5.40625 -7.304688 5.21875 -7.042969 Z M 5.21875 -7.042969 "/></g></g></g><g fill="#000000" fill-opacity="1"><g transform="translate(94.042326, 28.176134)"><g><path d="M 6.640625 -7.09375 C 6.167969 -6.5 5.667969 -5.882812 5.171875 -5.289062 C 4.863281 -4.910156 4.246094 -4.53125 3.867188 -4.4375 C 3.796875 -4.792969 3.960938 -5.074219 4.078125 -5.359375 C 4.246094 -5.765625 4.410156 -6.144531 4.578125 -6.523438 C 4.671875 -6.761719 4.601562 -6.949219 4.386719 -7.140625 C 4.152344 -7.328125 4.007812 -7.425781 3.84375 -7.425781 C 3.675781 -7.425781 3.511719 -7.328125 3.25 -7.117188 C 2.726562 -6.710938 2.183594 -6.355469 1.636719 -5.976562 C 1.589844 -6 1.542969 -6.046875 1.496094 -6.097656 C 1.777344 -7.566406 2.371094 -8.871094 3.464844 -9.9375 C 3.890625 -9.773438 4.105469 -9.511719 4.199219 -9.132812 C 4.246094 -8.871094 4.246094 -8.539062 4.554688 -8.421875 C 5.195312 -8.917969 5.195312 -9.75 4.554688 -10.199219 C 4.078125 -10.53125 3.605469 -10.625 3.035156 -10.625 C 2.5625 -10.625 2.183594 -10.507812 1.851562 -10.152344 C 1.28125 -9.582031 0.757812 -8.941406 0.355469 -8.230469 C -0.046875 -7.496094 -0.214844 -6.738281 -0.117188 -5.90625 C -0.09375 -5.550781 0.0703125 -5.335938 0.378906 -5.21875 C 0.6875 -5.125 0.972656 -5.050781 1.257812 -5.050781 C 1.636719 -5.050781 1.96875 -5.171875 2.300781 -5.480469 C 2.417969 -5.597656 2.585938 -5.667969 2.800781 -5.835938 C 2.632812 -5.21875 2.585938 -4.71875 2.773438 -4.222656 C 2.871094 -3.914062 3.082031 -3.746094 3.390625 -3.722656 C 3.84375 -3.722656 4.199219 -3.746094 4.601562 -4.007812 C 5.859375 -4.792969 6.902344 -6.046875 7.757812 -7.257812 C 7.496094 -7.375 7.328125 -7.449219 7.164062 -7.449219 C 6.972656 -7.449219 6.832031 -7.328125 6.640625 -7.09375 Z M 6.640625 -7.09375 "/></g></g></g></svg>